<svg xmlns="http://www.w3.org/2000/svg" xmlns:xlink="http://www.w3.org/1999/xlink" viewBox="0,0,256,256" width="32px" height="32px"><g fill="#000000" fill-rule="nonzero" stroke="none" stroke-width="1" stroke-linecap="butt" stroke-linejoin="miter" stroke-miterlimit="10" stroke-dasharray="" stroke-dashoffset="0" font-family="none" font-weight="none" font-size="none" text-anchor="none" style="mix-blend-mode: normal"><g transform="scale(8,8)"><path d="M4,4c-0.6,0 -1,0.4 -1,1v2.5c0,1.9 1.6,3.5 3.5,3.5h7.09961c0.8,0 1.40039,0.60039 1.40039,1.40039v0.59961c0,0.6 0.4,1 1,1c0.6,0 1,-0.4 1,-1v-0.59961c0,-0.8 0.60039,-1.40039 1.40039,-1.40039h7.09961c1.9,0 3.5,-1.6 3.5,-3.5v-2.5c0,-0.6 -0.4,-1 -1,-1c-0.6,0 -1,0.4 -1,1v0.59961c0,0.8 -0.60039,1.40039 -1.40039,1.40039h-6.59961c-1.7,0 -3,1.3 -3,3c0,-1.7 -1.3,-3 -3,-3h-6.59961c-0.8,0 -1.40039,-0.60039 -1.40039,-1.40039v-0.59961c0,-0.6 -0.4,-1 -1,-1zM10.35156,15.02734c-0.18906,0.01719 -0.37578,0.07188 -0.55078,0.17188c-0.7,0.4 -1.00156,1.3 -0.60156,2l5.5,10c0.2,0.5 0.80078,0.80078 1.30078,0.80078c0.5,0 1.10078,-0.30078 1.30078,-0.80078l5.5,-10c0.4,-0.7 0.09844,-1.6 -0.60156,-2c-0.7,-0.4 -1.6,-0.09844 -2,0.60156l-4.19922,7.59961l-4.19922,-7.59961c-0.3,-0.525 -0.88203,-0.825 -1.44922,-0.77344z"></path></g></g></svg>